<svg width="71" height="71" viewBox="0 0 71 71" fill="none" xmlns="http://www.w3.org/2000/svg">
<g filter="url(#filter0_d_66_449)">
<circle cx="34.5" cy="31.5" r="25.5" fill="#253D90"/>
</g>
<g clip-path="url(#clip0_66_449)">
<path d="M34.9811 44.4908C36.8398 44.4908 38.3475 42.9831 38.3475 41.1228H31.6148C31.6148 42.9831 33.1225 44.4908 34.9811 44.4908ZM46.3158 36.6124C45.2991 35.52 43.3967 33.8765 43.3967 28.4931C43.3967 24.4042 40.5298 21.131 36.664 20.328V19.2313C36.664 18.3015 35.9105 17.5474 34.9811 17.5474C34.0518 17.5474 33.2982 18.3015 33.2982 19.2313V20.328C29.4325 21.131 26.5655 24.4042 26.5655 28.4931C26.5655 33.8765 24.6632 35.52 23.6465 36.6124C23.3307 36.9519 23.1908 37.3576 23.1934 37.7549C23.1992 38.6179 23.8765 39.4389 24.8826 39.4389H45.0796C46.0858 39.4389 46.7636 38.6179 46.7689 37.7549C46.7715 37.3576 46.6315 36.9513 46.3158 36.6124Z" fill="white"/>
</g>
<g filter="url(#filter1_d_66_449)">
<circle cx="55.6697" cy="18.0281" r="10.1038" fill="#FF0000"/>
<circle cx="55.6697" cy="18.0281" r="9.60377" stroke="white"/>
</g>
<path d="M52.672 20.7358V16.4958L51.704 16.9038L51.32 16.0158L52.928 15.2638H53.72V20.7358H52.672ZM56.6386 20.8638C56.4146 20.8638 56.1986 20.8345 55.9906 20.7758C55.788 20.7172 55.6013 20.6292 55.4306 20.5118C55.26 20.3892 55.108 20.2372 54.9746 20.0558C54.8466 19.8745 54.748 19.6638 54.6786 19.4238L55.6626 19.0318C55.732 19.2985 55.8493 19.5012 56.0146 19.6398C56.18 19.7732 56.388 19.8398 56.6386 19.8398C56.7506 19.8398 56.8573 19.8238 56.9586 19.7918C57.06 19.7545 57.148 19.7038 57.2226 19.6398C57.2973 19.5758 57.356 19.5012 57.3986 19.4158C57.4466 19.3252 57.4706 19.2238 57.4706 19.1118C57.4706 18.8772 57.3826 18.6932 57.2066 18.5598C57.036 18.4265 56.7986 18.3598 56.4946 18.3598H56.0226V17.4078H56.4546C56.5613 17.4078 56.6653 17.3945 56.7666 17.3678C56.868 17.3412 56.956 17.3012 57.0306 17.2478C57.1106 17.1892 57.172 17.1172 57.2146 17.0318C57.2626 16.9412 57.2866 16.8372 57.2866 16.7198C57.2866 16.5385 57.2226 16.3918 57.0946 16.2798C56.9666 16.1625 56.7933 16.1038 56.5746 16.1038C56.34 16.1038 56.1586 16.1678 56.0306 16.2958C55.908 16.4185 55.8226 16.5572 55.7746 16.7118L54.8146 16.3198C54.8626 16.1865 54.9346 16.0505 55.0306 15.9118C55.1266 15.7678 55.2466 15.6398 55.3906 15.5278C55.54 15.4105 55.7133 15.3172 55.9106 15.2478C56.108 15.1732 56.3346 15.1358 56.5906 15.1358C56.852 15.1358 57.0893 15.1732 57.3026 15.2478C57.5213 15.3225 57.708 15.4265 57.8626 15.5598C58.0173 15.6878 58.1373 15.8425 58.2226 16.0238C58.308 16.1998 58.3506 16.3918 58.3506 16.5998C58.3506 16.7598 58.3293 16.9038 58.2866 17.0318C58.2493 17.1598 58.1986 17.2745 58.1346 17.3758C58.0706 17.4772 57.996 17.5652 57.9106 17.6398C57.8306 17.7092 57.748 17.7652 57.6626 17.8078V17.8718C57.9186 17.9732 58.1293 18.1358 58.2946 18.3598C58.4653 18.5838 58.5506 18.8665 58.5506 19.2078C58.5506 19.4478 58.5053 19.6692 58.4146 19.8718C58.324 20.0692 58.1933 20.2425 58.0226 20.3918C57.8573 20.5412 57.6573 20.6558 57.4226 20.7358C57.188 20.8212 56.9266 20.8638 56.6386 20.8638Z" fill="white"/>
<defs>
<filter id="filter0_d_66_449" x="0" y="0" width="71" height="71" filterUnits="userSpaceOnUse" color-interpolation-filters="sRGB">
<feFlood flood-opacity="0" result="BackgroundImageFix"/>
<feColorMatrix in="SourceAlpha" type="matrix" values="0 0 0 0 0 0 0 0 0 0 0 0 0 0 0 0 0 0 127 0" result="hardAlpha"/>
<feMorphology radius="1" operator="dilate" in="SourceAlpha" result="effect1_dropShadow_66_449"/>
<feOffset dx="1" dy="4"/>
<feGaussianBlur stdDeviation="4.5"/>
<feComposite in2="hardAlpha" operator="out"/>
<feColorMatrix type="matrix" values="0 0 0 0 0 0 0 0 0 0 0 0 0 0 0 0 0 0 0.1 0"/>
<feBlend mode="normal" in2="BackgroundImageFix" result="effect1_dropShadow_66_449"/>
<feBlend mode="normal" in="SourceGraphic" in2="effect1_dropShadow_66_449" result="shape"/>
</filter>
<filter id="filter1_d_66_449" x="39.5659" y="4.92432" width="30.2075" height="30.2075" filterUnits="userSpaceOnUse" color-interpolation-filters="sRGB">
<feFlood flood-opacity="0" result="BackgroundImageFix"/>
<feColorMatrix in="SourceAlpha" type="matrix" values="0 0 0 0 0 0 0 0 0 0 0 0 0 0 0 0 0 0 127 0" result="hardAlpha"/>
<feMorphology radius="1" operator="dilate" in="SourceAlpha" result="effect1_dropShadow_66_449"/>
<feOffset dx="-1" dy="2"/>
<feGaussianBlur stdDeviation="2"/>
<feComposite in2="hardAlpha" operator="out"/>
<feColorMatrix type="matrix" values="0 0 0 0 0 0 0 0 0 0 0 0 0 0 0 0 0 0 0.25 0"/>
<feBlend mode="normal" in2="BackgroundImageFix" result="effect1_dropShadow_66_449"/>
<feBlend mode="normal" in="SourceGraphic" in2="effect1_dropShadow_66_449" result="shape"/>
</filter>
<clipPath id="clip0_66_449">
<rect width="26.9434" height="26.9434" fill="white" transform="translate(21.5093 17.5474)"/>
</clipPath>
</defs>
</svg>
